<?xml version="1.0" standalone="no"?><!DOCTYPE svg PUBLIC "-//W3C//DTD SVG 1.1//EN" "http://www.w3.org/Graphics/SVG/1.1/DTD/svg11.dtd"><svg t="1556265610241" class="icon" style="" viewBox="0 0 2048 1024" version="1.1" xmlns="http://www.w3.org/2000/svg" p-id="3937" xmlns:xlink="http://www.w3.org/1999/xlink" width="400" height="200"><defs><style type="text/css"></style></defs><path d="M2039.466667 401.066667c-8.533333 93.866667-51.2 170.666667-119.466667 230.4-68.266667 59.733333-145.066667 85.333333-230.4 85.333333H1365.333333l-25.6 213.333333h-196.266666l59.733333-426.666666h537.6c25.6 0 51.2-8.533333 68.266667-25.6 17.066667-17.066667 34.133333-42.666667 34.133333-68.266667 0-25.6 0-51.2-17.066667-68.266667-17.066667-17.066667-34.133333-25.6-59.733333-25.6h-537.6L1390.933333 85.333333h392.533334c85.333333 0 153.6 25.6 204.8 85.333334 51.2 59.733333 68.266667 136.533333 51.2 230.4zM853.333333 921.6L955.733333 85.333333h196.266667l-110.933333 836.266667H853.333333z m-503.466666 17.066667c-34.133333 0-59.733333-34.133333-85.333334-93.866667L0 85.333333h213.333333l187.733334 520.533334L699.733333 85.333333h213.333334L460.8 844.8c-42.666667 59.733333-76.8 93.866667-110.933333 93.866667z" fill="#d81e06" p-id="3938"></path></svg>